<?xml version="1.0" encoding="UTF-8"?>
<svg width="154px" height="176px" viewBox="0 0 154 176" version="1.1" xmlns="http://www.w3.org/2000/svg" xmlns:xlink="http://www.w3.org/1999/xlink">
    <!-- Generator: Sketch 54.1 (76490) - https://sketchapp.com -->
    <title>Artboard</title>
    <desc>Created with Sketch.</desc>
    <g id="Artboard" stroke="none" stroke-width="1" fill="none" fill-rule="evenodd">
        <path d="M154,61.8532456 L139.173877,61.8532456 L139.173877,52.5758315 L77,18.0116366 L14.8935956,52.5758315 L14.8935956,123.704227 L77,158.512711 L139.173877,123.704227 L139.173877,114.832408 L154,114.832408 L154,132.31031 L77,176 L0,132.31031 L0,44.5142715 L77,-0 L154,44.5142715 L154,61.8532456 Z M124,78.157501 L76.920004,52.0665218 L52.6773773,65.7253105 L124,106.372046 L124,114.365826 L77,141 L30,114.365826 L30,97.9056396 L77,123.632632 L100.616116,110.449255 L30,70.6892728 L30,61.4967501 L76.920004,35 L124,61.4967501 L124,78.157501 Z" id="Combined-Shape" fill="#0F3181"></path>
    </g>
</svg>