<?xml version="1.0" encoding="UTF-8"?>
<svg width="741px" height="347px" viewBox="0 0 741 347" version="1.1" xmlns="http://www.w3.org/2000/svg" xmlns:xlink="http://www.w3.org/1999/xlink">
    <!-- Generator: Sketch 54.1 (76490) - https://sketchapp.com -->
    <title>Artboard</title>
    <desc>Created with Sketch.</desc>
    <g id="Artboard" stroke="none" stroke-width="1" fill="none" fill-rule="evenodd">
        <g id="Group-2" transform="translate(0.000000, -30.000000)">
            <path d="M451.170434,327.478851 C449.923669,328.285518 448.256432,327.932656 447.446612,326.690744 C446.636792,325.448833 446.991034,323.788087 448.237799,322.981419 C479.548027,302.75246 471.663033,284.131388 459.972526,256.523052 C449.138829,230.938279 435.216473,198.059335 443.717322,149.988143 C447.663599,127.67234 458.915743,103.7738 484.226687,84.1975722 C504.190456,68.7571036 532.912298,56.0272931 573.725676,48.9556544 C583.403548,47.2789025 593.82258,45.916344 605.033879,44.9077912 C615.810055,43.9383108 627.274393,43.3055527 639.467738,43.0457647 C645.763472,42.9116004 652.262894,42.8771682 658.971607,42.9474448 C665.617262,43.0169816 672.410569,43.1869904 679.354294,43.4618424 L683.090201,43.609793 L681.769982,47.0871046 C671.890717,73.1081312 656.0333,94.8332754 635.690445,109.803194 C633.466428,111.439864 631.188534,112.994624 628.859939,114.46633 C628.948044,116.005824 628.95763,117.682038 628.879315,119.471367 C628.418741,129.997385 624.776407,143.880403 615.908354,155.580881 C612.022433,160.707909 607.144272,165.417785 601.10691,169.249707 C599.02656,184.179477 593.291252,199.406695 582.353112,210.212138 C578.898059,213.625293 574.935849,216.591771 570.420368,218.963756 C570.32828,220.147227 570.21398,221.296064 570.078144,222.409998 C568.235238,237.517511 562.294352,249.997285 553.564566,258.538611 C544.721628,267.1907 533.067984,271.789208 519.930063,271.006616 C518.887525,270.944544 517.877124,270.854564 516.900749,270.736405 C515.420928,270.562294 514.362997,269.226165 514.537789,267.752105 C514.71258,266.278046 516.053931,265.224233 517.533752,265.398344 C518.487037,265.513746 519.391241,265.596598 520.246565,265.647574 C531.796576,266.335545 542.031432,262.302813 549.788016,254.713683 C557.65782,247.013792 563.02822,235.641698 564.719221,221.779459 L564.751965,221.507163 C558.46629,223.880628 551.264326,225.207073 543.050678,225.184746 C541.565052,225.184746 540.360685,223.985068 540.360685,222.505225 C540.360685,221.025382 541.565052,219.825704 543.050678,219.825704 C558.745592,219.86834 570.303975,214.559736 578.555498,206.408326 C587.584299,197.489052 592.755603,185.121788 595.099254,172.5712 C588.448265,175.748172 580.631392,177.941473 571.488358,178.713776 C567.859865,179.020168 563.985016,179.097909 559.849971,178.918418 C558.364345,178.854598 557.211963,177.603137 557.276033,176.123294 C557.340103,174.643451 558.596455,173.495555 560.082082,173.559376 C563.914195,173.725753 567.566588,173.648482 571.045337,173.354733 C590.629142,171.700443 603.517061,163.01473 611.604392,152.344392 C619.737159,141.614068 623.077169,128.887486 623.499329,119.24016 C623.523161,118.695567 623.537203,118.158708 623.541862,117.630793 C606.641637,127.078183 587.279005,132.25491 566.127748,132.048855 C564.642121,132.037288 563.447274,130.828128 563.458886,129.348285 C563.470498,127.868442 564.684384,126.678246 566.170011,126.689813 C591.361389,126.935276 613.882623,119.183132 632.483571,105.495004 C651.076418,91.8128624 665.781589,72.1915095 675.356707,48.6805334 C669.716457,48.485911 664.24202,48.3621032 658.929344,48.3064872 C652.287199,48.2369504 645.836724,48.2713825 639.573193,48.4048071 C627.509946,48.6618378 616.172196,49.2874674 605.519163,50.2458515 C594.560431,51.231741 584.278249,52.5804459 574.632917,54.251616 C534.791797,61.1547927 506.861411,73.4983847 487.539017,88.442815 C463.470314,107.058238 452.777517,129.743515 449.033981,150.912835 C440.802375,197.461547 454.371637,229.506587 464.930556,254.442463 C477.667381,284.521709 486.25809,304.809378 451.170434,327.478851 L451.170434,327.478851 Z M515.504306,234.725349 C515.521748,233.269739 516.737211,232.103596 518.219081,232.120729 C519.700951,232.137861 520.88813,233.331786 520.870689,234.787397 C520.836344,237.56308 520.096385,240.033087 518.80698,242.166924 C517.001463,245.154813 514.138266,247.44979 510.651545,248.971153 C507.320183,250.424845 503.407051,251.167038 499.325427,251.118286 C493.960931,251.054188 488.266254,249.633371 483.192206,246.674919 C481.913777,245.932859 481.48979,244.313132 482.245237,243.057357 C483.000684,241.801583 484.64963,241.385108 485.928058,242.127169 C490.176489,244.604188 494.926351,245.793681 499.388594,245.846997 C502.712952,245.886687 505.855419,245.301664 508.483928,244.154705 C510.956943,243.075615 512.958427,241.496437 514.17719,239.479551 C515.006242,238.107487 515.482151,236.516336 515.504306,234.725349 L515.504306,234.725349 Z M572.898301,69.4304569 C571.998955,69.6355711 571.100011,69.0879661 570.890527,68.2073783 C570.681044,67.3267906 571.240314,66.4465964 572.13966,66.2414822 C582.568365,63.8500791 595.939284,61.9620188 610.021964,60.6461536 C625.216621,59.2264198 641.197511,58.4735039 655.172302,58.4735039 C656.096963,58.4735039 656.846563,59.2074691 656.846563,60.1128436 C656.846563,61.0182181 656.096963,61.7521833 655.172302,61.7521833 C641.223228,61.7521833 625.3517,62.4962468 610.335921,63.8992592 C596.425623,65.1990589 583.212487,67.0653488 572.898301,69.4304569 L572.898301,69.4304569 Z M537.074289,129.983879 C536.817239,128.528711 537.802504,127.143002 539.275052,126.888987 C540.747599,126.634971 542.149858,127.608608 542.406907,129.063776 C543.428196,134.721976 542.584119,139.538098 540.357962,143.493538 C537.647638,148.309326 532.934213,151.715648 527.085939,153.716923 C521.483948,155.63395 514.814417,156.259152 507.906052,155.588045 C495.859211,154.417674 482.954749,149.296814 473.643761,140.205123 C472.580284,139.171529 472.566064,137.481483 473.612002,136.430558 C474.65794,135.379633 476.36817,135.36558 477.431646,136.399174 C485.824205,144.594116 497.505788,149.214707 508.435048,150.276473 C514.592309,150.874573 520.468549,150.340713 525.329527,148.6773 C529.944358,147.098068 533.612184,144.501838 535.638985,140.90052 C537.268227,138.005641 537.866225,134.371534 537.074289,129.983879 L537.074289,129.983879 Z M526.464484,196.150372 C526.482182,194.652945 527.715525,193.453302 529.219193,193.470927 C530.722861,193.488551 531.927504,194.716775 531.909805,196.214202 C531.857735,200.475864 530.737757,204.267305 528.785893,207.541842 C526.035284,212.156613 521.652541,215.710289 516.304389,218.07623 C511.11395,220.372285 505.0004,221.544572 498.609281,221.467132 C490.18136,221.364922 481.23076,219.099625 473.250762,214.382577 C471.953528,213.619199 471.523303,211.952941 472.289863,210.661091 C473.056423,209.369241 474.729625,208.940802 476.026859,209.70418 C483.169094,213.926033 491.161051,215.953293 498.673378,216.044411 C504.296023,216.112529 509.627502,215.102063 514.104886,213.121417 C518.424421,211.210522 521.932775,208.39314 524.087998,204.777267 C525.572738,202.286319 526.424782,199.399051 526.464484,196.150372 L526.464484,196.150372 Z M534.170898,159.435015 C533.858295,158.01017 534.778126,156.60547 536.225291,156.297688 C537.672456,155.989906 539.099161,156.895551 539.411764,158.320396 C540.969682,165.323887 540.021341,171.332899 537.273988,176.295651 C534.126892,181.98037 528.658683,186.171025 521.933756,188.824092 C515.411284,191.397307 507.676232,192.530816 499.759791,192.173234 C486.491931,191.573918 472.610068,186.781437 462.970954,177.553 C461.911591,176.538508 461.88818,174.870476 462.918563,173.827452 C463.948946,172.784428 465.643108,172.761377 466.70247,173.775869 C475.353798,182.05857 487.92407,186.364941 499.99042,186.910032 C507.166273,187.234127 514.127263,186.226505 519.942219,183.932473 C525.554721,181.718293 530.066069,178.315387 532.578231,173.77752 C534.719765,169.909177 535.436471,165.124489 534.170898,159.435015 L534.170898,159.435015 Z" id="Shape" fill="#000000" fill-rule="nonzero" transform="translate(562.090201, 185.411879) rotate(33.000000) translate(-562.090201, -185.411879) "></path>
            <path d="M70.1646818,331.208123 C69.3548618,329.966212 69.7091032,328.305465 70.9558682,327.498798 C102.266097,307.269838 94.3811028,288.648767 82.6905961,261.040431 C71.8568985,235.455657 57.9345426,202.576713 66.4353913,154.505522 C70.381669,132.189718 81.633813,108.291179 106.944757,88.7149507 C126.908526,73.2744821 155.630368,60.5446716 196.443745,53.4730329 C206.121618,51.796281 216.54065,50.4337226 227.751948,49.4251697 C238.528125,48.4556893 249.992463,47.8229312 262.185807,47.5631432 C268.481542,47.4289789 274.980964,47.3945467 281.689676,47.4648233 C288.335332,47.5343601 295.128638,47.7043689 302.072364,47.9792209 L305.808271,48.1271716 L304.488052,51.6044832 C294.608787,77.6255097 278.75137,99.3506539 258.408515,114.320572 C256.184497,115.957243 253.906604,117.512003 251.578009,118.983708 C251.666113,120.523202 251.6757,122.199416 251.597385,123.988745 C251.13681,134.514763 247.494477,148.397782 238.626424,160.098259 C234.740503,165.225288 229.862342,169.935163 223.82498,173.767086 C221.74463,188.696855 216.009322,203.924073 205.071181,214.729516 C201.616129,218.142671 197.653918,221.109149 193.138437,223.481135 C193.046349,224.664606 192.93205,225.813443 192.796213,226.927377 C190.953307,242.034889 185.012422,254.514663 176.282636,263.05599 C167.439698,271.708078 155.786053,276.306587 142.648133,275.523995 C141.605595,275.461923 140.595193,275.371942 139.618818,275.253783 C138.138998,275.079672 137.081067,273.743543 137.255859,272.269484 C137.43065,270.795424 138.772001,269.741612 140.251821,269.915723 C141.205107,270.031124 142.10931,270.113977 142.964634,270.164953 C154.514646,270.852923 164.749502,266.820191 172.506086,259.231062 C180.37589,251.53117 185.746289,240.159076 187.437291,226.296838 L187.470035,226.024541 C181.184359,228.398007 173.982396,229.724452 165.768748,229.702124 C164.283121,229.702124 163.078755,228.502446 163.078755,227.022603 C163.078755,225.54276 164.283121,224.343082 165.768748,224.343082 C181.463661,224.385719 193.022045,219.077114 201.273567,210.925704 C210.302369,202.006431 215.473672,189.639167 217.817323,177.088578 C211.166334,180.26555 203.349461,182.458852 194.206428,183.231154 C190.577934,183.537546 186.703085,183.615288 182.568041,183.435797 C181.082414,183.371976 179.930033,182.120515 179.994103,180.640672 C180.058173,179.160829 181.314525,178.012934 182.800151,178.076754 C186.632264,178.243132 190.284657,178.165861 193.763406,177.872112 C213.347211,176.217821 226.235131,167.532108 234.322462,156.861771 C242.455229,146.131447 245.795239,133.404864 246.217398,123.757539 C246.24123,123.212946 246.255273,122.676086 246.259931,122.148172 C229.359706,131.595562 209.997074,136.772289 188.845817,136.566234 C187.360191,136.554667 186.165343,135.345506 186.176956,133.865663 C186.188568,132.38582 187.402454,131.195624 188.88808,131.207191 C214.079459,131.452655 236.600692,123.70051 255.201641,110.012383 C273.794488,96.3302409 288.499659,76.708888 298.074776,53.1979119 C292.434527,53.0032895 286.960089,52.8794817 281.647413,52.8238657 C275.005268,52.7543289 268.554794,52.788761 262.291263,52.9221857 C250.228016,53.1792163 238.890265,53.8048459 228.237233,54.76323 C217.278501,55.7491195 206.996318,57.0978244 197.350987,58.7689945 C157.509866,65.6721712 129.57948,78.0157632 110.257086,92.9601936 C86.188384,111.575616 75.4955864,134.260893 71.7520506,155.430214 C63.5204443,201.978925 77.0897065,234.023965 87.6486256,258.959841 C100.385451,289.039087 108.97616,309.326756 73.8885037,331.996229 C72.6417387,332.802897 70.9745019,332.450034 70.1646818,331.208123 Z M140.937151,236.638107 C142.41902,236.65524 143.6062,237.849165 143.588758,239.304776 C143.554414,242.080458 142.814455,244.550465 141.52505,246.684303 C139.719533,249.672191 136.856335,251.967168 133.369615,253.488531 C130.038253,254.942224 126.12512,255.684417 122.043497,255.635665 C116.679,255.571566 110.984324,254.15075 105.910275,251.192298 C104.631847,250.450237 104.207859,248.83051 104.963306,247.574736 C105.718753,246.318961 107.3677,245.902487 108.646128,246.644547 C112.894559,249.121566 117.644421,250.311059 122.106664,250.364376 C125.431022,250.404065 128.573488,249.819042 131.201997,248.672083 C133.675012,247.592993 135.676496,246.013816 136.895259,243.99693 C137.724312,242.624865 138.20022,241.033715 138.222376,239.242728 C138.239818,237.787117 139.455281,236.620975 140.937151,236.638107 Z M193.608597,72.7247569 C193.399113,71.8441692 193.958384,70.9639749 194.85773,70.7588607 C205.286435,68.3674576 218.657353,66.4793973 232.740033,65.1635321 C247.934691,63.7437984 263.915581,62.9908824 277.890372,62.9908824 C278.815033,62.9908824 279.564633,63.7248476 279.564633,64.6302221 C279.564633,65.5355966 278.815033,66.2695618 277.890372,66.2695618 C263.941298,66.2695618 248.06977,67.0136253 233.053991,68.4166378 C219.143693,69.7164374 205.930557,71.5827273 195.616371,73.9478354 C194.717025,74.1529496 193.81808,73.6053446 193.608597,72.7247569 Z M161.993121,131.406365 C163.465669,131.15235 164.867927,132.125986 165.124976,133.581155 C166.146266,139.239355 165.302189,144.055477 163.076032,148.010917 C160.365708,152.826704 155.652283,156.233027 149.804009,158.234302 C144.202017,160.151328 137.532486,160.77653 130.624122,160.105424 C118.57728,158.935052 105.672819,153.814192 96.3618302,144.722501 C95.2983538,143.688907 95.2841335,141.998862 96.3300715,140.947937 C97.3760095,139.897011 99.0862394,139.882959 100.149716,140.916553 C108.542275,149.111494 120.223857,153.732086 131.153118,154.793851 C137.310379,155.391952 143.186619,154.858091 148.047597,153.194678 C152.662428,151.615447 156.330253,149.019216 158.357054,145.417899 C159.986296,142.52302 160.584294,138.888913 159.792358,134.501258 C159.535309,133.04609 160.520574,131.660381 161.993121,131.406365 Z M151.937262,197.988305 C153.44093,198.00593 154.645573,199.234154 154.627875,200.731581 C154.575805,204.993243 153.455827,208.784683 151.503963,212.059221 C148.753354,216.673991 144.370611,220.227667 139.022459,222.593609 C133.83202,224.889664 127.71847,226.061951 121.327351,225.984511 C112.89943,225.8823 103.94883,223.617004 95.9688316,218.899955 C94.6715976,218.136577 94.2413729,216.470319 95.0079327,215.178469 C95.7744925,213.88662 97.4476947,213.45818 98.7449287,214.221559 C105.887164,218.443412 113.87912,220.470672 121.391447,220.56179 C127.014093,220.629907 132.345571,219.619442 136.822956,217.638796 C141.142491,215.7279 144.650844,212.910519 146.806068,209.294646 C148.290808,206.803697 149.142852,203.916429 149.182553,200.66775 C149.200252,199.170323 150.433594,197.97068 151.937262,197.988305 Z M158.943361,160.815066 C160.390526,160.507284 161.817231,161.412929 162.129834,162.837774 C163.687752,169.841266 162.73941,175.850278 159.992057,180.81303 C156.844961,186.497748 151.376753,190.688403 144.651826,193.34147 C138.129353,195.914685 130.394302,197.048194 122.47786,196.690613 C109.210001,196.091297 95.3281371,191.298815 85.6890237,182.070378 C84.6296611,181.055887 84.6062494,179.387854 85.6366325,178.34483 C86.6670156,177.301806 88.3611775,177.278756 89.4205401,178.293247 C98.0718676,186.575948 110.642139,190.882319 122.708489,191.42741 C129.884343,191.751506 136.845332,190.743883 142.660289,188.449851 C148.272791,186.235671 152.784138,182.832766 155.296301,178.294898 C157.437834,174.426555 158.154541,169.641868 156.888967,163.952394 C156.576364,162.527549 157.496196,161.122848 158.943361,160.815066 Z" id="Shape-Copy" fill="#000000" fill-rule="nonzero" transform="translate(184.808271, 189.929258) scale(-1, 1) rotate(41.000000) translate(-184.808271, -189.929258) "></path>
            <g id="Group" transform="translate(276.000000, 41.000000)"></g>
            <path d="M376.545878,104.98043 C352.042914,105.224575 334.466167,113.866045 323.815636,130.904842 C309.135645,154.389999 313.25833,169.860172 309.159896,201.693765 C307.777808,212.428803 302.348259,229.559501 292.871249,253.085861 C313.999728,265.54553 341.891271,271.775365 376.545878,271.775365 C411.200485,271.775365 437.759369,265.54553 456.22253,253.085861 C449.492893,229.25052 444.997011,212.119822 442.734883,201.693765 C435.193045,166.933727 435.193045,147.15114 425.678285,130.904842 C416.942341,115.988359 400.564872,107.346889 376.545878,104.98043 Z" id="Path-2" stroke="#000000" stroke-width="7" fill="#FFB800"></path>
            <path d="M307.854404,222.84108 L301.572544,239.356647 C324.615215,247.605023 348.939659,251.729211 374.545878,251.729211 C400.152096,251.729211 424.807811,247.150341 448.513023,237.992601 L444.277171,222.84108 C414.207688,229.571894 390.963923,232.937301 374.545878,232.937301 C358.127832,232.937301 335.897341,229.571894 307.854404,222.84108 Z" id="Path-6" fill="#FF9D00"></path>
            <path d="M290.638128,256.293067 C300.065738,256.293067 324.563967,271.775365 376.545878,271.775365 C428.527788,271.775365 440.273072,256.293067 460.298733,256.293067 C468.912826,256.293067 481.575357,274.237646 465.296478,283.294631 C443.730944,295.292922 388.736645,299.241742 376.545878,299.241742 C355.389038,299.241742 301.464218,294.813898 284.116607,283.294631 C266.768996,271.775365 281.210518,256.293067 290.638128,256.293067 Z" id="Path-2-Copy" stroke="#000000" stroke-width="7" fill="#FF9D00"></path>
            <path d="M374.583967,104.98043 C366.668709,104.98043 350.891975,84.3819086 350.891975,70.1841623 C350.891975,55.986416 356.929876,41 374.583967,41 C392.238057,41 397.718803,52.3832561 397.718803,70.1841623 C397.718803,87.9850685 382.499225,104.98043 374.583967,104.98043 Z M374.805389,91.8100691 C376.545878,91.8100691 386.269244,80.5782682 386.305389,70.3236117 C386.341534,60.0689551 383.613403,52.9902152 374.942219,52.9902152 C366.271034,52.9902152 363.337885,61.1042829 363.305389,70.3236117 C363.272893,79.5429404 373.0649,91.8100691 374.805389,91.8100691 Z" id="Combined-Shape" stroke="#000000" stroke-width="7" fill="#FF9D00"></path>
            <path d="M304.345233,221.436271 C329.173414,229.103624 353.039071,232.937301 375.942204,232.937301 C398.845337,232.937301 422.710994,229.103624 447.539175,221.436271" id="Path-4" stroke="#000000" stroke-width="7"></path>
            <path d="M299.989567,237.992601 C323.647144,247.150341 349.198237,251.729211 376.642848,251.729211 C404.087459,251.729211 428.846897,247.150341 450.921162,237.992601" id="Path-4-Copy" stroke="#000000" stroke-width="7"></path>
            <path d="M370.707002,299.241742 L363.33391,336.767679 C351.185715,339.440084 345.111618,344.48116 345.111618,351.890909 C345.111618,363.005532 353.595179,368.189104 363.33391,369.980904 C373.072642,371.772705 388.180988,366.766081 388.180988,356.110364 C388.180988,349.006553 384.302618,343.468259 376.545878,339.495483 L384.157498,299.241742 L370.707002,299.241742 Z" id="Path-5" stroke="#000000" stroke-width="7" fill="#FFB800"></path>
        </g>
    </g>
</svg>